<svg width="316" height="30" viewBox="0 0 316 30" fill="none" xmlns="http://www.w3.org/2000/svg">
<path d="M28.19 7V7.59H24.3V7H28.19ZM37.1997 6.02C37.1997 6.62 37.003 7.10333 36.6097 7.47C36.2164 7.83667 35.6264 8.02 34.8397 8.02H33.4297V11H32.7297V4.01H34.8397C35.6197 4.01 36.2064 4.19333 36.5997 4.56C36.9997 4.92667 37.1997 5.41333 37.1997 6.02ZM34.8397 7.42C35.933 7.42 36.4797 6.95333 36.4797 6.02C36.4797 5.55333 36.3497 5.2 36.0897 4.96C35.8297 4.72 35.413 4.6 34.8397 4.6H33.4297V7.42H34.8397ZM40.7642 11.08C40.2509 11.08 39.7876 10.9667 39.3742 10.74C38.9676 10.5067 38.6442 10.18 38.4042 9.76C38.1709 9.33333 38.0542 8.83667 38.0542 8.27C38.0542 7.70333 38.1742 7.21 38.4142 6.79C38.6542 6.36333 38.9809 6.03667 39.3942 5.81C39.8076 5.57667 40.2709 5.46 40.7842 5.46C41.2976 5.46 41.7609 5.57667 42.1742 5.81C42.5942 6.03667 42.9209 6.36333 43.1542 6.79C43.3942 7.21 43.5142 7.70333 43.5142 8.27C43.5142 8.83 43.3942 9.32333 43.1542 9.75C42.9142 10.1767 42.5842 10.5067 42.1642 10.74C41.7442 10.9667 41.2776 11.08 40.7642 11.08ZM40.7642 10.47C41.1242 10.47 41.4576 10.39 41.7642 10.23C42.0709 10.0633 42.3176 9.81667 42.5042 9.49C42.6976 9.15667 42.7942 8.75 42.7942 8.27C42.7942 7.79 42.7009 7.38667 42.5142 7.06C42.3276 6.72667 42.0809 6.48 41.7742 6.32C41.4676 6.15333 41.1342 6.07 40.7742 6.07C40.4142 6.07 40.0809 6.15333 39.7742 6.32C39.4676 6.48 39.2209 6.72667 39.0342 7.06C38.8542 7.38667 38.7642 7.79 38.7642 8.27C38.7642 8.75 38.8542 9.15667 39.0342 9.49C39.2209 9.81667 39.4642 10.0633 39.7642 10.23C40.0709 10.39 40.4042 10.47 40.7642 10.47ZM45.4902 6.51C45.6436 6.17 45.8769 5.90667 46.1902 5.72C46.5102 5.53333 46.9002 5.44 47.3602 5.44V6.17H47.1702C46.6636 6.17 46.2569 6.30667 45.9502 6.58C45.6436 6.85333 45.4902 7.31 45.4902 7.95V11H44.7902V5.54H45.4902V6.51ZM48.0933 8.27C48.0933 7.70333 48.2066 7.21 48.4333 6.79C48.6599 6.36333 48.9733 6.03667 49.3733 5.81C49.7733 5.57667 50.2299 5.46 50.7433 5.46C51.4166 5.46 51.9699 5.62667 52.4033 5.96C52.8433 6.29333 53.1266 6.74667 53.2533 7.32H52.5033C52.4099 6.92667 52.2066 6.62 51.8933 6.4C51.5866 6.17333 51.2033 6.06 50.7433 6.06C50.3766 6.06 50.0466 6.14333 49.7533 6.31C49.4599 6.47667 49.2266 6.72667 49.0533 7.06C48.8866 7.38667 48.8033 7.79 48.8033 8.27C48.8033 8.75 48.8866 9.15667 49.0533 9.49C49.2266 9.82333 49.4599 10.0733 49.7533 10.24C50.0466 10.4067 50.3766 10.49 50.7433 10.49C51.2033 10.49 51.5866 10.38 51.8933 10.16C52.2066 9.93333 52.4099 9.62 52.5033 9.22H53.2533C53.1266 9.78 52.8433 10.23 52.4033 10.57C51.9633 10.91 51.4099 11.08 50.7433 11.08C50.2299 11.08 49.7733 10.9667 49.3733 10.74C48.9733 10.5067 48.6599 10.18 48.4333 9.76C48.2066 9.33333 48.0933 8.83667 48.0933 8.27ZM59.4861 7.99C59.4861 8.23 59.4794 8.41333 59.4661 8.54H54.9361C54.9561 8.95333 55.0561 9.30667 55.2361 9.6C55.4161 9.89333 55.6528 10.1167 55.9461 10.27C56.2394 10.4167 56.5594 10.49 56.9061 10.49C57.3594 10.49 57.7394 10.38 58.0461 10.16C58.3594 9.94 58.5661 9.64333 58.6661 9.27H59.4061C59.2728 9.80333 58.9861 10.24 58.5461 10.58C58.1128 10.9133 57.5661 11.08 56.9061 11.08C56.3928 11.08 55.9328 10.9667 55.5261 10.74C55.1194 10.5067 54.7994 10.18 54.5661 9.76C54.3394 9.33333 54.2261 8.83667 54.2261 8.27C54.2261 7.70333 54.3394 7.20667 54.5661 6.78C54.7928 6.35333 55.1094 6.02667 55.5161 5.8C55.9228 5.57333 56.3861 5.46 56.9061 5.46C57.4261 5.46 57.8794 5.57333 58.2661 5.8C58.6594 6.02667 58.9594 6.33333 59.1661 6.72C59.3794 7.1 59.4861 7.52333 59.4861 7.99ZM58.7761 7.97C58.7828 7.56333 58.6994 7.21667 58.5261 6.93C58.3594 6.64333 58.1294 6.42667 57.8361 6.28C57.5428 6.13333 57.2228 6.06 56.8761 6.06C56.3561 6.06 55.9128 6.22667 55.5461 6.56C55.1794 6.89333 54.9761 7.36333 54.9361 7.97H58.7761ZM63.3268 5.44C63.9801 5.44 64.5135 5.64333 64.9268 6.05C65.3401 6.45 65.5468 7.03333 65.5468 7.8V11H64.8568V7.88C64.8568 7.28667 64.7068 6.83333 64.4068 6.52C64.1135 6.20667 63.7101 6.05 63.1968 6.05C62.6701 6.05 62.2501 6.21667 61.9368 6.55C61.6235 6.88333 61.4668 7.37333 61.4668 8.02V11H60.7668V5.54H61.4668V6.47C61.6401 6.13667 61.8901 5.88333 62.2168 5.71C62.5435 5.53 62.9135 5.44 63.3268 5.44ZM68.0049 6.13V9.52C68.0049 9.85333 68.0683 10.0833 68.1949 10.21C68.3216 10.3367 68.5449 10.4 68.8649 10.4H69.5049V11H68.7549C68.2616 11 67.8949 10.8867 67.6549 10.66C67.4149 10.4267 67.2949 10.0467 67.2949 9.52V6.13H66.5349V5.54H67.2949V4.17H68.0049V5.54H69.5049V6.13H68.0049ZM70.3394 8.26C70.3394 7.7 70.4494 7.21 70.6694 6.79C70.896 6.36333 71.206 6.03667 71.5994 5.81C71.9994 5.57667 72.4494 5.46 72.9494 5.46C73.4694 5.46 73.916 5.58 74.2894 5.82C74.6694 6.06 74.9427 6.36667 75.1094 6.74V5.54H75.8094V11H75.1094V9.79C74.936 10.1633 74.6594 10.4733 74.2794 10.72C73.906 10.96 73.4594 11.08 72.9394 11.08C72.446 11.08 71.9994 10.9633 71.5994 10.73C71.206 10.4967 70.896 10.1667 70.6694 9.74C70.4494 9.31333 70.3394 8.82 70.3394 8.26ZM75.1094 8.27C75.1094 7.83 75.0194 7.44333 74.8394 7.11C74.6594 6.77667 74.4127 6.52 74.0994 6.34C73.7927 6.16 73.4527 6.07 73.0794 6.07C72.6927 6.07 72.346 6.15667 72.0394 6.33C71.7327 6.50333 71.4894 6.75667 71.3094 7.09C71.136 7.41667 71.0494 7.80667 71.0494 8.26C71.0494 8.70667 71.136 9.1 71.3094 9.44C71.4894 9.77333 71.7327 10.03 72.0394 10.21C72.346 10.3833 72.6927 10.47 73.0794 10.47C73.4527 10.47 73.7927 10.38 74.0994 10.2C74.4127 10.02 74.6594 9.76333 74.8394 9.43C75.0194 9.09667 75.1094 8.71 75.1094 8.27ZM79.6974 5.46C80.2108 5.46 80.6574 5.58 81.0374 5.82C81.4174 6.06 81.6908 6.36333 81.8574 6.73V5.54H82.5574V11.14C82.5574 11.64 82.4474 12.0833 82.2274 12.47C82.0141 12.8567 81.7141 13.1533 81.3274 13.36C80.9408 13.5733 80.5008 13.68 80.0074 13.68C79.3074 13.68 78.7241 13.5133 78.2574 13.18C77.7974 12.8467 77.5108 12.3933 77.3974 11.82H78.0874C78.2074 12.2 78.4341 12.5033 78.7674 12.73C79.1074 12.9567 79.5208 13.07 80.0074 13.07C80.3608 13.07 80.6774 12.9933 80.9574 12.84C81.2374 12.6933 81.4574 12.4733 81.6174 12.18C81.7774 11.8867 81.8574 11.54 81.8574 11.14V9.79C81.6841 10.1633 81.4074 10.4733 81.0274 10.72C80.6541 10.96 80.2108 11.08 79.6974 11.08C79.1974 11.08 78.7474 10.9633 78.3474 10.73C77.9541 10.4967 77.6441 10.1667 77.4174 9.74C77.1974 9.31333 77.0874 8.82 77.0874 8.26C77.0874 7.7 77.1974 7.21 77.4174 6.79C77.6441 6.36333 77.9541 6.03667 78.3474 5.81C78.7474 5.57667 79.1974 5.46 79.6974 5.46ZM81.8574 8.27C81.8574 7.83 81.7674 7.44333 81.5874 7.11C81.4074 6.77667 81.1608 6.52 80.8474 6.34C80.5408 6.16 80.2008 6.07 79.8274 6.07C79.4408 6.07 79.0941 6.15667 78.7874 6.33C78.4808 6.50333 78.2374 6.75667 78.0574 7.09C77.8841 7.41667 77.7974 7.80667 77.7974 8.26C77.7974 8.70667 77.8841 9.1 78.0574 9.44C78.2374 9.77333 78.4808 10.03 78.7874 10.21C79.0941 10.3833 79.4408 10.47 79.8274 10.47C80.2008 10.47 80.5408 10.38 80.8474 10.2C81.1608 10.02 81.4074 9.76333 81.5874 9.43C81.7674 9.09667 81.8574 8.71 81.8574 8.27ZM89.0955 7.99C89.0955 8.23 89.0888 8.41333 89.0755 8.54H84.5455C84.5655 8.95333 84.6655 9.30667 84.8455 9.6C85.0255 9.89333 85.2621 10.1167 85.5555 10.27C85.8488 10.4167 86.1688 10.49 86.5155 10.49C86.9688 10.49 87.3488 10.38 87.6555 10.16C87.9688 9.94 88.1755 9.64333 88.2755 9.27H89.0155C88.8821 9.80333 88.5955 10.24 88.1555 10.58C87.7221 10.9133 87.1755 11.08 86.5155 11.08C86.0021 11.08 85.5421 10.9667 85.1355 10.74C84.7288 10.5067 84.4088 10.18 84.1755 9.76C83.9488 9.33333 83.8355 8.83667 83.8355 8.27C83.8355 7.70333 83.9488 7.20667 84.1755 6.78C84.4021 6.35333 84.7188 6.02667 85.1255 5.8C85.5321 5.57333 85.9955 5.46 86.5155 5.46C87.0355 5.46 87.4888 5.57333 87.8755 5.8C88.2688 6.02667 88.5688 6.33333 88.7755 6.72C88.9888 7.1 89.0955 7.52333 89.0955 7.99ZM88.3855 7.97C88.3921 7.56333 88.3088 7.21667 88.1355 6.93C87.9688 6.64333 87.7388 6.42667 87.4455 6.28C87.1521 6.13333 86.8321 6.06 86.4855 6.06C85.9655 6.06 85.5221 6.22667 85.1555 6.56C84.7888 6.89333 84.5855 7.36333 84.5455 7.97H88.3855ZM96.8762 5.44C97.5162 5.44 98.0362 5.64333 98.4362 6.05C98.8428 6.45 99.0462 7.03333 99.0462 7.8V11H98.3562V7.88C98.3562 7.28667 98.2128 6.83333 97.9262 6.52C97.6395 6.20667 97.2495 6.05 96.7562 6.05C96.2428 6.05 95.8328 6.22 95.5262 6.56C95.2195 6.9 95.0662 7.39333 95.0662 8.04V11H94.3762V7.88C94.3762 7.28667 94.2328 6.83333 93.9462 6.52C93.6595 6.20667 93.2662 6.05 92.7662 6.05C92.2528 6.05 91.8428 6.22 91.5362 6.56C91.2295 6.9 91.0762 7.39333 91.0762 8.04V11H90.3762V5.54H91.0762V6.48C91.2495 6.14 91.4962 5.88333 91.8162 5.71C92.1362 5.53 92.4928 5.44 92.8862 5.44C93.3595 5.44 93.7728 5.55333 94.1262 5.78C94.4862 6.00667 94.7462 6.34 94.9062 6.78C95.0528 6.34667 95.3028 6.01667 95.6562 5.79C96.0162 5.55667 96.4228 5.44 96.8762 5.44ZM103.025 8.26C103.025 7.7 103.138 7.21 103.365 6.79C103.592 6.36333 103.902 6.03667 104.295 5.81C104.695 5.57667 105.145 5.46 105.645 5.46C106.125 5.46 106.558 5.57667 106.945 5.81C107.332 6.04333 107.615 6.34667 107.795 6.72V3.6H108.495V11H107.795V9.78C107.628 10.16 107.355 10.4733 106.975 10.72C106.595 10.96 106.148 11.08 105.635 11.08C105.135 11.08 104.685 10.9633 104.285 10.73C103.892 10.4967 103.582 10.1667 103.355 9.74C103.135 9.31333 103.025 8.82 103.025 8.26ZM107.795 8.27C107.795 7.83 107.705 7.44333 107.525 7.11C107.345 6.77667 107.098 6.52 106.785 6.34C106.478 6.16 106.138 6.07 105.765 6.07C105.378 6.07 105.032 6.15667 104.725 6.33C104.418 6.50333 104.175 6.75667 103.995 7.09C103.822 7.41667 103.735 7.80667 103.735 8.26C103.735 8.70667 103.822 9.1 103.995 9.44C104.175 9.77333 104.418 10.03 104.725 10.21C105.032 10.3833 105.378 10.47 105.765 10.47C106.138 10.47 106.478 10.38 106.785 10.2C107.098 10.02 107.345 9.76333 107.525 9.43C107.705 9.09667 107.795 8.71 107.795 8.27ZM115.033 7.99C115.033 8.23 115.026 8.41333 115.013 8.54H110.483C110.503 8.95333 110.603 9.30667 110.783 9.6C110.963 9.89333 111.2 10.1167 111.493 10.27C111.786 10.4167 112.106 10.49 112.453 10.49C112.906 10.49 113.286 10.38 113.593 10.16C113.906 9.94 114.113 9.64333 114.213 9.27H114.953C114.82 9.80333 114.533 10.24 114.093 10.58C113.66 10.9133 113.113 11.08 112.453 11.08C111.94 11.08 111.48 10.9667 111.073 10.74C110.666 10.5067 110.346 10.18 110.113 9.76C109.886 9.33333 109.773 8.83667 109.773 8.27C109.773 7.70333 109.886 7.20667 110.113 6.78C110.34 6.35333 110.656 6.02667 111.063 5.8C111.47 5.57333 111.933 5.46 112.453 5.46C112.973 5.46 113.426 5.57333 113.813 5.8C114.206 6.02667 114.506 6.33333 114.713 6.72C114.926 7.1 115.033 7.52333 115.033 7.99ZM114.323 7.97C114.33 7.56333 114.246 7.21667 114.073 6.93C113.906 6.64333 113.676 6.42667 113.383 6.28C113.09 6.13333 112.77 6.06 112.423 6.06C111.903 6.06 111.46 6.22667 111.093 6.56C110.726 6.89333 110.523 7.36333 110.483 7.97H114.323ZM119.758 6.51C119.911 6.17 120.144 5.90667 120.458 5.72C120.778 5.53333 121.168 5.44 121.628 5.44V6.17H121.438C120.931 6.17 120.524 6.30667 120.218 6.58C119.911 6.85333 119.758 7.31 119.758 7.95V11H119.058V5.54H119.758V6.51ZM127.621 7.99C127.621 8.23 127.614 8.41333 127.601 8.54H123.071C123.091 8.95333 123.191 9.30667 123.371 9.6C123.551 9.89333 123.788 10.1167 124.081 10.27C124.374 10.4167 124.694 10.49 125.041 10.49C125.494 10.49 125.874 10.38 126.181 10.16C126.494 9.94 126.701 9.64333 126.801 9.27H127.541C127.408 9.80333 127.121 10.24 126.681 10.58C126.248 10.9133 125.701 11.08 125.041 11.08C124.528 11.08 124.068 10.9667 123.661 10.74C123.254 10.5067 122.934 10.18 122.701 9.76C122.474 9.33333 122.361 8.83667 122.361 8.27C122.361 7.70333 122.474 7.20667 122.701 6.78C122.928 6.35333 123.244 6.02667 123.651 5.8C124.058 5.57333 124.521 5.46 125.041 5.46C125.561 5.46 126.014 5.57333 126.401 5.8C126.794 6.02667 127.094 6.33333 127.301 6.72C127.514 7.1 127.621 7.52333 127.621 7.99ZM126.911 7.97C126.918 7.56333 126.834 7.21667 126.661 6.93C126.494 6.64333 126.264 6.42667 125.971 6.28C125.678 6.13333 125.358 6.06 125.011 6.06C124.491 6.06 124.048 6.22667 123.681 6.56C123.314 6.89333 123.111 7.36333 123.071 7.97H126.911ZM131.462 5.44C132.115 5.44 132.648 5.64333 133.062 6.05C133.475 6.45 133.682 7.03333 133.682 7.8V11H132.992V7.88C132.992 7.28667 132.842 6.83333 132.542 6.52C132.248 6.20667 131.845 6.05 131.332 6.05C130.805 6.05 130.385 6.21667 130.072 6.55C129.758 6.88333 129.602 7.37333 129.602 8.02V11H128.902V5.54H129.602V6.47C129.775 6.13667 130.025 5.88333 130.352 5.71C130.678 5.53 131.048 5.44 131.462 5.44ZM136.14 6.13V9.52C136.14 9.85333 136.203 10.0833 136.33 10.21C136.456 10.3367 136.68 10.4 137 10.4H137.64V11H136.89C136.396 11 136.03 10.8867 135.79 10.66C135.55 10.4267 135.43 10.0467 135.43 9.52V6.13H134.67V5.54H135.43V4.17H136.14V5.54H137.64V6.13H136.14ZM138.474 8.26C138.474 7.7 138.584 7.21 138.804 6.79C139.031 6.36333 139.341 6.03667 139.734 5.81C140.134 5.57667 140.584 5.46 141.084 5.46C141.604 5.46 142.051 5.58 142.424 5.82C142.804 6.06 143.077 6.36667 143.244 6.74V5.54H143.944V11H143.244V9.79C143.071 10.1633 142.794 10.4733 142.414 10.72C142.041 10.96 141.594 11.08 141.074 11.08C140.581 11.08 140.134 10.9633 139.734 10.73C139.341 10.4967 139.031 10.1667 138.804 9.74C138.584 9.31333 138.474 8.82 138.474 8.26ZM143.244 8.27C143.244 7.83 143.154 7.44333 142.974 7.11C142.794 6.77667 142.547 6.52 142.234 6.34C141.927 6.16 141.587 6.07 141.214 6.07C140.827 6.07 140.481 6.15667 140.174 6.33C139.867 6.50333 139.624 6.75667 139.444 7.09C139.271 7.41667 139.184 7.80667 139.184 8.26C139.184 8.70667 139.271 9.1 139.444 9.44C139.624 9.77333 139.867 10.03 140.174 10.21C140.481 10.3833 140.827 10.47 141.214 10.47C141.587 10.47 141.927 10.38 142.234 10.2C142.547 10.02 142.794 9.76333 142.974 9.43C143.154 9.09667 143.244 8.71 143.244 8.27ZM146.232 6.75C146.412 6.37 146.689 6.06 147.062 5.82C147.442 5.58 147.889 5.46 148.402 5.46C148.902 5.46 149.349 5.57667 149.742 5.81C150.136 6.03667 150.442 6.36333 150.662 6.79C150.889 7.21 151.002 7.7 151.002 8.26C151.002 8.82 150.889 9.31333 150.662 9.74C150.442 10.1667 150.132 10.4967 149.732 10.73C149.339 10.9633 148.896 11.08 148.402 11.08C147.882 11.08 147.432 10.9633 147.052 10.73C146.679 10.49 146.406 10.18 146.232 9.8V11H145.542V3.6H146.232V6.75ZM150.292 8.26C150.292 7.80667 150.202 7.41667 150.022 7.09C149.849 6.75667 149.609 6.50333 149.302 6.33C148.996 6.15667 148.649 6.07 148.262 6.07C147.889 6.07 147.546 6.16 147.232 6.34C146.926 6.52 146.682 6.77667 146.502 7.11C146.322 7.44333 146.232 7.83 146.232 8.27C146.232 8.71 146.322 9.09667 146.502 9.43C146.682 9.76333 146.926 10.02 147.232 10.2C147.546 10.38 147.889 10.47 148.262 10.47C148.649 10.47 148.996 10.3833 149.302 10.21C149.609 10.03 149.849 9.77333 150.022 9.44C150.202 9.1 150.292 8.70667 150.292 8.26ZM152.64 4.51C152.5 4.51 152.38 4.46 152.28 4.36C152.18 4.26 152.13 4.13667 152.13 3.99C152.13 3.84333 152.18 3.72333 152.28 3.63C152.38 3.53 152.5 3.48 152.64 3.48C152.78 3.48 152.9 3.53 153 3.63C153.1 3.72333 153.15 3.84333 153.15 3.99C153.15 4.13667 153.1 4.26 153 4.36C152.9 4.46 152.78 4.51 152.64 4.51ZM152.99 5.54V11H152.29V5.54H152.99ZM155.275 3.6V11H154.575V3.6H155.275ZM157.211 4.51C157.071 4.51 156.951 4.46 156.851 4.36C156.751 4.26 156.701 4.13667 156.701 3.99C156.701 3.84333 156.751 3.72333 156.851 3.63C156.951 3.53 157.071 3.48 157.211 3.48C157.351 3.48 157.471 3.53 157.571 3.63C157.671 3.72333 157.721 3.84333 157.721 3.99C157.721 4.13667 157.671 4.26 157.571 4.36C157.471 4.46 157.351 4.51 157.211 4.51ZM157.561 5.54V11H156.861V5.54H157.561ZM158.826 8.26C158.826 7.7 158.939 7.21 159.166 6.79C159.392 6.36333 159.702 6.03667 160.096 5.81C160.496 5.57667 160.946 5.46 161.446 5.46C161.926 5.46 162.359 5.57667 162.746 5.81C163.132 6.04333 163.416 6.34667 163.596 6.72V3.6H164.296V11H163.596V9.78C163.429 10.16 163.156 10.4733 162.776 10.72C162.396 10.96 161.949 11.08 161.436 11.08C160.936 11.08 160.486 10.9633 160.086 10.73C159.692 10.4967 159.382 10.1667 159.156 9.74C158.936 9.31333 158.826 8.82 158.826 8.26ZM163.596 8.27C163.596 7.83 163.506 7.44333 163.326 7.11C163.146 6.77667 162.899 6.52 162.586 6.34C162.279 6.16 161.939 6.07 161.566 6.07C161.179 6.07 160.832 6.15667 160.526 6.33C160.219 6.50333 159.976 6.75667 159.796 7.09C159.622 7.41667 159.536 7.80667 159.536 8.26C159.536 8.70667 159.622 9.1 159.796 9.44C159.976 9.77333 160.219 10.03 160.526 10.21C160.832 10.3833 161.179 10.47 161.566 10.47C161.939 10.47 162.279 10.38 162.586 10.2C162.899 10.02 163.146 9.76333 163.326 9.43C163.506 9.09667 163.596 8.71 163.596 8.27ZM165.574 8.26C165.574 7.7 165.684 7.21 165.904 6.79C166.13 6.36333 166.44 6.03667 166.834 5.81C167.234 5.57667 167.684 5.46 168.184 5.46C168.704 5.46 169.15 5.58 169.524 5.82C169.904 6.06 170.177 6.36667 170.344 6.74V5.54H171.044V11H170.344V9.79C170.17 10.1633 169.894 10.4733 169.514 10.72C169.14 10.96 168.694 11.08 168.174 11.08C167.68 11.08 167.234 10.9633 166.834 10.73C166.44 10.4967 166.13 10.1667 165.904 9.74C165.684 9.31333 165.574 8.82 165.574 8.26ZM170.344 8.27C170.344 7.83 170.254 7.44333 170.074 7.11C169.894 6.77667 169.647 6.52 169.334 6.34C169.027 6.16 168.687 6.07 168.314 6.07C167.927 6.07 167.58 6.15667 167.274 6.33C166.967 6.50333 166.724 6.75667 166.544 7.09C166.37 7.41667 166.284 7.80667 166.284 8.26C166.284 8.70667 166.37 9.1 166.544 9.44C166.724 9.77333 166.967 10.03 167.274 10.21C167.58 10.3833 167.927 10.47 168.314 10.47C168.687 10.47 169.027 10.38 169.334 10.2C169.647 10.02 169.894 9.76333 170.074 9.43C170.254 9.09667 170.344 8.71 170.344 8.27ZM172.322 8.26C172.322 7.7 172.435 7.21 172.662 6.79C172.888 6.36333 173.198 6.03667 173.592 5.81C173.992 5.57667 174.442 5.46 174.942 5.46C175.422 5.46 175.855 5.57667 176.242 5.81C176.628 6.04333 176.912 6.34667 177.092 6.72V3.6H177.792V11H177.092V9.78C176.925 10.16 176.652 10.4733 176.272 10.72C175.892 10.96 175.445 11.08 174.932 11.08C174.432 11.08 173.982 10.9633 173.582 10.73C173.188 10.4967 172.878 10.1667 172.652 9.74C172.432 9.31333 172.322 8.82 172.322 8.26ZM177.092 8.27C177.092 7.83 177.002 7.44333 176.822 7.11C176.642 6.77667 176.395 6.52 176.082 6.34C175.775 6.16 175.435 6.07 175.062 6.07C174.675 6.07 174.328 6.15667 174.022 6.33C173.715 6.50333 173.472 6.75667 173.292 7.09C173.118 7.41667 173.032 7.80667 173.032 8.26C173.032 8.70667 173.118 9.1 173.292 9.44C173.472 9.77333 173.715 10.03 174.022 10.21C174.328 10.3833 174.675 10.47 175.062 10.47C175.435 10.47 175.775 10.38 176.082 10.2C176.395 10.02 176.642 9.76333 176.822 9.43C177.002 9.09667 177.092 8.71 177.092 8.27ZM184.33 7.99C184.33 8.23 184.323 8.41333 184.31 8.54H179.78C179.8 8.95333 179.9 9.30667 180.08 9.6C180.26 9.89333 180.497 10.1167 180.79 10.27C181.083 10.4167 181.403 10.49 181.75 10.49C182.203 10.49 182.583 10.38 182.89 10.16C183.203 9.94 183.41 9.64333 183.51 9.27H184.25C184.117 9.80333 183.83 10.24 183.39 10.58C182.957 10.9133 182.41 11.08 181.75 11.08C181.237 11.08 180.777 10.9667 180.37 10.74C179.963 10.5067 179.643 10.18 179.41 9.76C179.183 9.33333 179.07 8.83667 179.07 8.27C179.07 7.70333 179.183 7.20667 179.41 6.78C179.637 6.35333 179.953 6.02667 180.36 5.8C180.767 5.57333 181.23 5.46 181.75 5.46C182.27 5.46 182.723 5.57333 183.11 5.8C183.503 6.02667 183.803 6.33333 184.01 6.72C184.223 7.1 184.33 7.52333 184.33 7.99ZM183.62 7.97C183.627 7.56333 183.543 7.21667 183.37 6.93C183.203 6.64333 182.973 6.42667 182.68 6.28C182.387 6.13333 182.067 6.06 181.72 6.06C181.2 6.06 180.757 6.22667 180.39 6.56C180.023 6.89333 179.82 7.36333 179.78 7.97H183.62ZM188.035 8.26C188.035 7.7 188.148 7.21 188.375 6.79C188.601 6.36333 188.911 6.03667 189.305 5.81C189.705 5.57667 190.155 5.46 190.655 5.46C191.135 5.46 191.568 5.57667 191.955 5.81C192.341 6.04333 192.625 6.34667 192.805 6.72V3.6H193.505V11H192.805V9.78C192.638 10.16 192.365 10.4733 191.985 10.72C191.605 10.96 191.158 11.08 190.645 11.08C190.145 11.08 189.695 10.9633 189.295 10.73C188.901 10.4967 188.591 10.1667 188.365 9.74C188.145 9.31333 188.035 8.82 188.035 8.26ZM192.805 8.27C192.805 7.83 192.715 7.44333 192.535 7.11C192.355 6.77667 192.108 6.52 191.795 6.34C191.488 6.16 191.148 6.07 190.775 6.07C190.388 6.07 190.041 6.15667 189.735 6.33C189.428 6.50333 189.185 6.75667 189.005 7.09C188.831 7.41667 188.745 7.80667 188.745 8.26C188.745 8.70667 188.831 9.1 189.005 9.44C189.185 9.77333 189.428 10.03 189.735 10.21C190.041 10.3833 190.388 10.47 190.775 10.47C191.148 10.47 191.488 10.38 191.795 10.2C192.108 10.02 192.355 9.76333 192.535 9.43C192.715 9.09667 192.805 8.71 192.805 8.27ZM194.783 8.26C194.783 7.7 194.893 7.21 195.113 6.79C195.339 6.36333 195.649 6.03667 196.043 5.81C196.443 5.57667 196.893 5.46 197.393 5.46C197.913 5.46 198.359 5.58 198.733 5.82C199.113 6.06 199.386 6.36667 199.553 6.74V5.54H200.253V11H199.553V9.79C199.379 10.1633 199.103 10.4733 198.723 10.72C198.349 10.96 197.903 11.08 197.383 11.08C196.889 11.08 196.443 10.9633 196.043 10.73C195.649 10.4967 195.339 10.1667 195.113 9.74C194.893 9.31333 194.783 8.82 194.783 8.26ZM199.553 8.27C199.553 7.83 199.463 7.44333 199.283 7.11C199.103 6.77667 198.856 6.52 198.543 6.34C198.236 6.16 197.896 6.07 197.523 6.07C197.136 6.07 196.789 6.15667 196.483 6.33C196.176 6.50333 195.933 6.75667 195.753 7.09C195.579 7.41667 195.493 7.80667 195.493 8.26C195.493 8.70667 195.579 9.1 195.753 9.44C195.933 9.77333 196.176 10.03 196.483 10.21C196.789 10.3833 197.136 10.47 197.523 10.47C197.896 10.47 198.236 10.38 198.543 10.2C198.856 10.02 199.103 9.76333 199.283 9.43C199.463 9.09667 199.553 8.71 199.553 8.27ZM209.065 6.02C209.065 6.62 208.868 7.10333 208.475 7.47C208.082 7.83667 207.492 8.02 206.705 8.02H205.295V11H204.595V4.01H206.705C207.485 4.01 208.072 4.19333 208.465 4.56C208.865 4.92667 209.065 5.41333 209.065 6.02ZM206.705 7.42C207.798 7.42 208.345 6.95333 208.345 6.02C208.345 5.55333 208.215 5.2 207.955 4.96C207.695 4.72 207.278 4.6 206.705 4.6H205.295V7.42H206.705ZM212.629 11.08C212.116 11.08 211.653 10.9667 211.239 10.74C210.833 10.5067 210.509 10.18 210.269 9.76C210.036 9.33333 209.919 8.83667 209.919 8.27C209.919 7.70333 210.039 7.21 210.279 6.79C210.519 6.36333 210.846 6.03667 211.259 5.81C211.673 5.57667 212.136 5.46 212.649 5.46C213.163 5.46 213.626 5.57667 214.039 5.81C214.459 6.03667 214.786 6.36333 215.019 6.79C215.259 7.21 215.379 7.70333 215.379 8.27C215.379 8.83 215.259 9.32333 215.019 9.75C214.779 10.1767 214.449 10.5067 214.029 10.74C213.609 10.9667 213.143 11.08 212.629 11.08ZM212.629 10.47C212.989 10.47 213.323 10.39 213.629 10.23C213.936 10.0633 214.183 9.81667 214.369 9.49C214.563 9.15667 214.659 8.75 214.659 8.27C214.659 7.79 214.566 7.38667 214.379 7.06C214.193 6.72667 213.946 6.48 213.639 6.32C213.333 6.15333 212.999 6.07 212.639 6.07C212.279 6.07 211.946 6.15333 211.639 6.32C211.333 6.48 211.086 6.72667 210.899 7.06C210.719 7.38667 210.629 7.79 210.629 8.27C210.629 8.75 210.719 9.15667 210.899 9.49C211.086 9.81667 211.329 10.0633 211.629 10.23C211.936 10.39 212.269 10.47 212.629 10.47ZM221.385 5.54V11H220.685V10.04C220.525 10.38 220.279 10.64 219.945 10.82C219.612 11 219.239 11.09 218.825 11.09C218.172 11.09 217.639 10.89 217.225 10.49C216.812 10.0833 216.605 9.49667 216.605 8.73V5.54H217.295V8.65C217.295 9.24333 217.442 9.69667 217.735 10.01C218.035 10.3233 218.442 10.48 218.955 10.48C219.482 10.48 219.902 10.3133 220.215 9.98C220.529 9.64667 220.685 9.15667 220.685 8.51V5.54H221.385ZM223.674 6.74C223.847 6.37333 224.12 6.07 224.494 5.83C224.874 5.58333 225.324 5.46 225.844 5.46C226.337 5.46 226.78 5.57667 227.174 5.81C227.574 6.03667 227.884 6.36333 228.104 6.79C228.33 7.21 228.444 7.7 228.444 8.26C228.444 8.82 228.33 9.31333 228.104 9.74C227.884 10.1667 227.574 10.4967 227.174 10.73C226.78 10.9633 226.337 11.08 225.844 11.08C225.33 11.08 224.884 10.96 224.504 10.72C224.124 10.4733 223.847 10.1667 223.674 9.8V13.58H222.984V5.54H223.674V6.74ZM227.734 8.26C227.734 7.80667 227.644 7.41667 227.464 7.09C227.29 6.75667 227.05 6.50333 226.744 6.33C226.437 6.15667 226.09 6.07 225.704 6.07C225.33 6.07 224.987 6.16 224.674 6.34C224.367 6.52 224.124 6.77667 223.944 7.11C223.764 7.44333 223.674 7.83 223.674 8.27C223.674 8.71 223.764 9.09667 223.944 9.43C224.124 9.76333 224.367 10.02 224.674 10.2C224.987 10.38 225.33 10.47 225.704 10.47C226.09 10.47 226.437 10.3833 226.744 10.21C227.05 10.03 227.29 9.77333 227.464 9.44C227.644 9.1 227.734 8.70667 227.734 8.26ZM229.412 8.26C229.412 7.7 229.522 7.21 229.742 6.79C229.968 6.36333 230.278 6.03667 230.672 5.81C231.072 5.57667 231.522 5.46 232.022 5.46C232.542 5.46 232.988 5.58 233.362 5.82C233.742 6.06 234.015 6.36667 234.182 6.74V5.54H234.882V11H234.182V9.79C234.008 10.1633 233.732 10.4733 233.352 10.72C232.978 10.96 232.532 11.08 232.012 11.08C231.518 11.08 231.072 10.9633 230.672 10.73C230.278 10.4967 229.968 10.1667 229.742 9.74C229.522 9.31333 229.412 8.82 229.412 8.26ZM234.182 8.27C234.182 7.83 234.092 7.44333 233.912 7.11C233.732 6.77667 233.485 6.52 233.172 6.34C232.865 6.16 232.525 6.07 232.152 6.07C231.765 6.07 231.418 6.15667 231.112 6.33C230.805 6.50333 230.562 6.75667 230.382 7.09C230.208 7.41667 230.122 7.80667 230.122 8.26C230.122 8.70667 230.208 9.1 230.382 9.44C230.562 9.77333 230.805 10.03 231.112 10.21C231.418 10.3833 231.765 10.47 232.152 10.47C232.525 10.47 232.865 10.38 233.172 10.2C233.485 10.02 233.732 9.76333 233.912 9.43C234.092 9.09667 234.182 8.71 234.182 8.27ZM239.04 5.44C239.693 5.44 240.226 5.64333 240.64 6.05C241.053 6.45 241.26 7.03333 241.26 7.8V11H240.57V7.88C240.57 7.28667 240.42 6.83333 240.12 6.52C239.826 6.20667 239.423 6.05 238.91 6.05C238.383 6.05 237.963 6.21667 237.65 6.55C237.336 6.88333 237.18 7.37333 237.18 8.02V11H236.48V5.54H237.18V6.47C237.353 6.13667 237.603 5.88333 237.93 5.71C238.256 5.53 238.626 5.44 239.04 5.44ZM245.138 10.49C245.598 10.49 245.981 10.38 246.288 10.16C246.601 9.93333 246.804 9.62 246.898 9.22H247.648C247.528 9.74667 247.268 10.1767 246.868 10.51C246.474 10.8433 245.974 11.03 245.368 11.07V11.67C245.761 11.6567 246.071 11.73 246.298 11.89C246.531 12.0567 246.648 12.2933 246.648 12.6C246.648 12.9 246.541 13.1367 246.328 13.31C246.114 13.49 245.831 13.58 245.478 13.58H244.478V13.11H245.338C245.584 13.11 245.764 13.0667 245.878 12.98C245.998 12.9 246.058 12.7733 246.058 12.6C246.058 12.28 245.818 12.12 245.338 12.12H244.878V11.07C244.411 11.03 243.998 10.8933 243.638 10.66C243.278 10.42 242.994 10.0967 242.788 9.69C242.588 9.27667 242.488 8.80333 242.488 8.27C242.488 7.70333 242.601 7.21 242.828 6.79C243.054 6.36333 243.368 6.03667 243.768 5.81C244.168 5.57667 244.624 5.46 245.138 5.46C245.811 5.46 246.364 5.62667 246.798 5.96C247.238 6.29333 247.521 6.74667 247.648 7.32H246.898C246.804 6.92667 246.601 6.62 246.288 6.4C245.981 6.17333 245.598 6.06 245.138 6.06C244.771 6.06 244.441 6.14333 244.148 6.31C243.854 6.47667 243.621 6.72667 243.448 7.06C243.281 7.38667 243.198 7.79 243.198 8.27C243.198 8.75 243.281 9.15667 243.448 9.49C243.621 9.82333 243.854 10.0733 244.148 10.24C244.441 10.4067 244.771 10.49 245.138 10.49ZM248.621 8.26C248.621 7.7 248.731 7.21 248.951 6.79C249.177 6.36333 249.487 6.03667 249.881 5.81C250.281 5.57667 250.731 5.46 251.231 5.46C251.751 5.46 252.197 5.58 252.571 5.82C252.951 6.06 253.224 6.36667 253.391 6.74V5.54H254.091V11H253.391V9.79C253.217 10.1633 252.941 10.4733 252.561 10.72C252.187 10.96 251.741 11.08 251.221 11.08C250.727 11.08 250.281 10.9633 249.881 10.73C249.487 10.4967 249.177 10.1667 248.951 9.74C248.731 9.31333 248.621 8.82 248.621 8.26ZM253.391 8.27C253.391 7.83 253.301 7.44333 253.121 7.11C252.941 6.77667 252.694 6.52 252.381 6.34C252.074 6.16 251.734 6.07 251.361 6.07C250.974 6.07 250.627 6.15667 250.321 6.33C250.014 6.50333 249.771 6.75667 249.591 7.09C249.417 7.41667 249.331 7.80667 249.331 8.26C249.331 8.70667 249.417 9.1 249.591 9.44C249.771 9.77333 250.014 10.03 250.321 10.21C250.627 10.3833 250.974 10.47 251.361 10.47C251.734 10.47 252.074 10.38 252.381 10.2C252.694 10.02 252.941 9.76333 253.121 9.43C253.301 9.09667 253.391 8.71 253.391 8.27ZM255.809 11.05C255.662 11.05 255.539 11 255.439 10.9C255.345 10.8 255.299 10.6767 255.299 10.53C255.299 10.3833 255.345 10.2633 255.439 10.17C255.539 10.07 255.662 10.02 255.809 10.02C255.949 10.02 256.065 10.07 256.159 10.17C256.259 10.2633 256.309 10.3833 256.309 10.53C256.309 10.6767 256.259 10.8 256.159 10.9C256.065 11 255.949 11.05 255.809 11.05ZM255.809 6.7C255.662 6.7 255.539 6.65 255.439 6.55C255.345 6.45 255.299 6.32667 255.299 6.18C255.299 6.03333 255.345 5.91333 255.439 5.82C255.539 5.72 255.662 5.67 255.809 5.67C255.949 5.67 256.065 5.72 256.159 5.82C256.259 5.91333 256.309 6.03333 256.309 6.18C256.309 6.32667 256.259 6.45 256.159 6.55C256.065 6.65 255.949 6.7 255.809 6.7ZM260.129 7.35C260.129 6.20333 260.305 5.31333 260.659 4.68C261.012 4.04667 261.645 3.73 262.559 3.73C263.472 3.73 264.105 4.04667 264.459 4.68C264.812 5.31333 264.989 6.20333 264.989 7.35C264.989 8.51667 264.812 9.42 264.459 10.06C264.105 10.7 263.472 11.02 262.559 11.02C261.639 11.02 261.002 10.7 260.649 10.06C260.302 9.42 260.129 8.51667 260.129 7.35ZM264.299 7.35C264.299 6.73 264.255 6.20667 264.169 5.78C264.082 5.35333 263.912 5.01 263.659 4.75C263.405 4.49 263.039 4.36 262.559 4.36C262.079 4.36 261.712 4.49 261.459 4.75C261.205 5.01 261.035 5.35333 260.949 5.78C260.862 6.20667 260.819 6.73 260.819 7.35C260.819 7.99 260.862 8.52667 260.949 8.96C261.035 9.38667 261.205 9.73 261.459 9.99C261.712 10.25 262.079 10.38 262.559 10.38C263.039 10.38 263.405 10.25 263.659 9.99C263.912 9.73 264.082 9.38667 264.169 8.96C264.255 8.52667 264.299 7.99 264.299 7.35ZM267.081 9.84L266.041 12.46H265.561L266.301 9.84H267.081ZM272.539 4.43H268.879V6.99C269.046 6.75667 269.289 6.56667 269.609 6.42C269.929 6.26667 270.276 6.19 270.649 6.19C271.196 6.19 271.642 6.30333 271.989 6.53C272.336 6.75 272.586 7.04 272.739 7.4C272.892 7.75333 272.969 8.13333 272.969 8.54C272.969 9.00667 272.879 9.43 272.699 9.81C272.526 10.1833 272.256 10.48 271.889 10.7C271.529 10.92 271.079 11.03 270.539 11.03C269.852 11.03 269.296 10.8533 268.869 10.5C268.442 10.14 268.182 9.65667 268.089 9.05H268.779C268.866 9.49 269.066 9.83 269.379 10.07C269.692 10.31 270.079 10.43 270.539 10.43C271.119 10.43 271.556 10.26 271.849 9.92C272.149 9.57333 272.299 9.11667 272.299 8.55C272.299 7.99667 272.149 7.56667 271.849 7.26C271.549 6.94667 271.119 6.79 270.559 6.79C270.172 6.79 269.832 6.88 269.539 7.06C269.246 7.24 269.029 7.48333 268.889 7.79H268.229V3.82H272.539V4.43ZM274.191 7.35C274.191 6.20333 274.368 5.31333 274.721 4.68C275.074 4.04667 275.708 3.73 276.621 3.73C277.534 3.73 278.168 4.04667 278.521 4.68C278.874 5.31333 279.051 6.20333 279.051 7.35C279.051 8.51667 278.874 9.42 278.521 10.06C278.168 10.7 277.534 11.02 276.621 11.02C275.701 11.02 275.064 10.7 274.711 10.06C274.364 9.42 274.191 8.51667 274.191 7.35ZM278.361 7.35C278.361 6.73 278.318 6.20667 278.231 5.78C278.144 5.35333 277.974 5.01 277.721 4.75C277.468 4.49 277.101 4.36 276.621 4.36C276.141 4.36 275.774 4.49 275.521 4.75C275.268 5.01 275.098 5.35333 275.011 5.78C274.924 6.20667 274.881 6.73 274.881 7.35C274.881 7.99 274.924 8.52667 275.011 8.96C275.098 9.38667 275.268 9.73 275.521 9.99C275.774 10.25 276.141 10.38 276.621 10.38C277.101 10.38 277.468 10.25 277.721 9.99C277.974 9.73 278.144 9.38667 278.231 8.96C278.318 8.52667 278.361 7.99 278.361 7.35ZM280.133 5.33C280.133 4.90333 280.263 4.56 280.523 4.3C280.79 4.03333 281.126 3.9 281.533 3.9C281.946 3.9 282.283 4.03333 282.543 4.3C282.81 4.56 282.943 4.90333 282.943 5.33C282.943 5.76333 282.81 6.11333 282.543 6.38C282.283 6.64 281.946 6.77 281.533 6.77C281.126 6.77 280.79 6.64 280.523 6.38C280.263 6.11333 280.133 5.76333 280.133 5.33ZM285.733 4L281.633 11H280.923L285.033 4H285.733ZM281.533 4.35C281.28 4.35 281.076 4.43667 280.923 4.61C280.776 4.77667 280.703 5.01667 280.703 5.33C280.703 5.64333 280.776 5.88667 280.923 6.06C281.076 6.23333 281.28 6.32 281.533 6.32C281.786 6.32 281.99 6.23333 282.143 6.06C282.296 5.88667 282.373 5.64333 282.373 5.33C282.373 5.02333 282.296 4.78333 282.143 4.61C281.99 4.43667 281.786 4.35 281.533 4.35ZM283.733 9.67C283.733 9.23667 283.863 8.89 284.123 8.63C284.39 8.36333 284.726 8.23 285.133 8.23C285.54 8.23 285.873 8.36333 286.133 8.63C286.4 8.89 286.533 9.23667 286.533 9.67C286.533 10.1033 286.4 10.4533 286.133 10.72C285.873 10.98 285.54 11.11 285.133 11.11C284.726 11.11 284.39 10.98 284.123 10.72C283.863 10.4533 283.733 10.1033 283.733 9.67ZM285.133 8.69C284.88 8.69 284.676 8.77667 284.523 8.95C284.37 9.12333 284.293 9.36333 284.293 9.67C284.293 9.97667 284.37 10.2167 284.523 10.39C284.676 10.5633 284.88 10.65 285.133 10.65C285.386 10.65 285.586 10.5667 285.733 10.4C285.886 10.2267 285.963 9.98333 285.963 9.67C285.963 9.35667 285.886 9.11667 285.733 8.95C285.586 8.77667 285.386 8.69 285.133 8.69ZM290.183 8.26C290.183 7.7 290.293 7.21 290.513 6.79C290.74 6.36333 291.05 6.03667 291.443 5.81C291.843 5.57667 292.293 5.46 292.793 5.46C293.313 5.46 293.76 5.58 294.133 5.82C294.513 6.06 294.786 6.36667 294.953 6.74V5.54H295.653V11H294.953V9.79C294.78 10.1633 294.503 10.4733 294.123 10.72C293.75 10.96 293.303 11.08 292.783 11.08C292.29 11.08 291.843 10.9633 291.443 10.73C291.05 10.4967 290.74 10.1667 290.513 9.74C290.293 9.31333 290.183 8.82 290.183 8.26ZM294.953 8.27C294.953 7.83 294.863 7.44333 294.683 7.11C294.503 6.77667 294.256 6.52 293.943 6.34C293.636 6.16 293.296 6.07 292.923 6.07C292.536 6.07 292.19 6.15667 291.883 6.33C291.576 6.50333 291.333 6.75667 291.153 7.09C290.98 7.41667 290.893 7.80667 290.893 8.26C290.893 8.70667 290.98 9.1 291.153 9.44C291.333 9.77333 291.576 10.03 291.883 10.21C292.19 10.3833 292.536 10.47 292.923 10.47C293.296 10.47 293.636 10.38 293.943 10.2C294.256 10.02 294.503 9.76333 294.683 9.43C294.863 9.09667 294.953 8.71 294.953 8.27ZM297.371 11.05C297.225 11.05 297.101 11 297.001 10.9C296.908 10.8 296.861 10.6767 296.861 10.53C296.861 10.3833 296.908 10.2633 297.001 10.17C297.101 10.07 297.225 10.02 297.371 10.02C297.511 10.02 297.628 10.07 297.721 10.17C297.821 10.2633 297.871 10.3833 297.871 10.53C297.871 10.6767 297.821 10.8 297.721 10.9C297.628 11 297.511 11.05 297.371 11.05ZM305.568 5.44C306.208 5.44 306.728 5.64333 307.128 6.05C307.534 6.45 307.738 7.03333 307.738 7.8V11H307.048V7.88C307.048 7.28667 306.904 6.83333 306.618 6.52C306.331 6.20667 305.941 6.05 305.448 6.05C304.934 6.05 304.524 6.22 304.218 6.56C303.911 6.9 303.758 7.39333 303.758 8.04V11H303.068V7.88C303.068 7.28667 302.924 6.83333 302.638 6.52C302.351 6.20667 301.958 6.05 301.458 6.05C300.944 6.05 300.534 6.22 300.228 6.56C299.921 6.9 299.768 7.39333 299.768 8.04V11H299.068V5.54H299.768V6.48C299.941 6.14 300.188 5.88333 300.508 5.71C300.828 5.53 301.184 5.44 301.578 5.44C302.051 5.44 302.464 5.55333 302.818 5.78C303.178 6.00667 303.438 6.34 303.598 6.78C303.744 6.34667 303.994 6.01667 304.348 5.79C304.708 5.55667 305.114 5.44 305.568 5.44ZM309.412 11.05C309.266 11.05 309.142 11 309.042 10.9C308.949 10.8 308.902 10.6767 308.902 10.53C308.902 10.3833 308.949 10.2633 309.042 10.17C309.142 10.07 309.266 10.02 309.412 10.02C309.552 10.02 309.669 10.07 309.762 10.17C309.862 10.2633 309.912 10.3833 309.912 10.53C309.912 10.6767 309.862 10.8 309.762 10.9C309.669 11 309.552 11.05 309.412 11.05ZM28.19 22V22.59H24.3V22H28.19ZM37.1997 21.02C37.1997 21.62 37.003 22.1033 36.6097 22.47C36.2164 22.8367 35.6264 23.02 34.8397 23.02H33.4297V26H32.7297V19.01H34.8397C35.6197 19.01 36.2064 19.1933 36.5997 19.56C36.9997 19.9267 37.1997 20.4133 37.1997 21.02ZM34.8397 22.42C35.933 22.42 36.4797 21.9533 36.4797 21.02C36.4797 20.5533 36.3497 20.2 36.0897 19.96C35.8297 19.72 35.413 19.6 34.8397 19.6H33.4297V22.42H34.8397ZM40.7642 26.08C40.2509 26.08 39.7876 25.9667 39.3742 25.74C38.9676 25.5067 38.6442 25.18 38.4042 24.76C38.1709 24.3333 38.0542 23.8367 38.0542 23.27C38.0542 22.7033 38.1742 22.21 38.4142 21.79C38.6542 21.3633 38.9809 21.0367 39.3942 20.81C39.8076 20.5767 40.2709 20.46 40.7842 20.46C41.2976 20.46 41.7609 20.5767 42.1742 20.81C42.5942 21.0367 42.9209 21.3633 43.1542 21.79C43.3942 22.21 43.5142 22.7033 43.5142 23.27C43.5142 23.83 43.3942 24.3233 43.1542 24.75C42.9142 25.1767 42.5842 25.5067 42.1642 25.74C41.7442 25.9667 41.2776 26.08 40.7642 26.08ZM40.7642 25.47C41.1242 25.47 41.4576 25.39 41.7642 25.23C42.0709 25.0633 42.3176 24.8167 42.5042 24.49C42.6976 24.1567 42.7942 23.75 42.7942 23.27C42.7942 22.79 42.7009 22.3867 42.5142 22.06C42.3276 21.7267 42.0809 21.48 41.7742 21.32C41.4676 21.1533 41.1342 21.07 40.7742 21.07C40.4142 21.07 40.0809 21.1533 39.7742 21.32C39.4676 21.48 39.2209 21.7267 39.0342 22.06C38.8542 22.3867 38.7642 22.79 38.7642 23.27C38.7642 23.75 38.8542 24.1567 39.0342 24.49C39.2209 24.8167 39.4642 25.0633 39.7642 25.23C40.0709 25.39 40.4042 25.47 40.7642 25.47ZM45.4902 21.51C45.6436 21.17 45.8769 20.9067 46.1902 20.72C46.5102 20.5333 46.9002 20.44 47.3602 20.44V21.17H47.1702C46.6636 21.17 46.2569 21.3067 45.9502 21.58C45.6436 21.8533 45.4902 22.31 45.4902 22.95V26H44.7902V20.54H45.4902V21.51ZM48.0933 23.27C48.0933 22.7033 48.2066 22.21 48.4333 21.79C48.6599 21.3633 48.9733 21.0367 49.3733 20.81C49.7733 20.5767 50.2299 20.46 50.7433 20.46C51.4166 20.46 51.9699 20.6267 52.4033 20.96C52.8433 21.2933 53.1266 21.7467 53.2533 22.32H52.5033C52.4099 21.9267 52.2066 21.62 51.8933 21.4C51.5866 21.1733 51.2033 21.06 50.7433 21.06C50.3766 21.06 50.0466 21.1433 49.7533 21.31C49.4599 21.4767 49.2266 21.7267 49.0533 22.06C48.8866 22.3867 48.8033 22.79 48.8033 23.27C48.8033 23.75 48.8866 24.1567 49.0533 24.49C49.2266 24.8233 49.4599 25.0733 49.7533 25.24C50.0466 25.4067 50.3766 25.49 50.7433 25.49C51.2033 25.49 51.5866 25.38 51.8933 25.16C52.2066 24.9333 52.4099 24.62 52.5033 24.22H53.2533C53.1266 24.78 52.8433 25.23 52.4033 25.57C51.9633 25.91 51.4099 26.08 50.7433 26.08C50.2299 26.08 49.7733 25.9667 49.3733 25.74C48.9733 25.5067 48.6599 25.18 48.4333 24.76C48.2066 24.3333 48.0933 23.8367 48.0933 23.27ZM59.4861 22.99C59.4861 23.23 59.4794 23.4133 59.4661 23.54H54.9361C54.9561 23.9533 55.0561 24.3067 55.2361 24.6C55.4161 24.8933 55.6528 25.1167 55.9461 25.27C56.2394 25.4167 56.5594 25.49 56.9061 25.49C57.3594 25.49 57.7394 25.38 58.0461 25.16C58.3594 24.94 58.5661 24.6433 58.6661 24.27H59.4061C59.2728 24.8033 58.9861 25.24 58.5461 25.58C58.1128 25.9133 57.5661 26.08 56.9061 26.08C56.3928 26.08 55.9328 25.9667 55.5261 25.74C55.1194 25.5067 54.7994 25.18 54.5661 24.76C54.3394 24.3333 54.2261 23.8367 54.2261 23.27C54.2261 22.7033 54.3394 22.2067 54.5661 21.78C54.7928 21.3533 55.1094 21.0267 55.5161 20.8C55.9228 20.5733 56.3861 20.46 56.9061 20.46C57.4261 20.46 57.8794 20.5733 58.2661 20.8C58.6594 21.0267 58.9594 21.3333 59.1661 21.72C59.3794 22.1 59.4861 22.5233 59.4861 22.99ZM58.7761 22.97C58.7828 22.5633 58.6994 22.2167 58.5261 21.93C58.3594 21.6433 58.1294 21.4267 57.8361 21.28C57.5428 21.1333 57.2228 21.06 56.8761 21.06C56.3561 21.06 55.9128 21.2267 55.5461 21.56C55.1794 21.8933 54.9761 22.3633 54.9361 22.97H58.7761ZM63.3268 20.44C63.9801 20.44 64.5135 20.6433 64.9268 21.05C65.3401 21.45 65.5468 22.0333 65.5468 22.8V26H64.8568V22.88C64.8568 22.2867 64.7068 21.8333 64.4068 21.52C64.1135 21.2067 63.7101 21.05 63.1968 21.05C62.6701 21.05 62.2501 21.2167 61.9368 21.55C61.6235 21.8833 61.4668 22.3733 61.4668 23.02V26H60.7668V20.54H61.4668V21.47C61.6401 21.1367 61.8901 20.8833 62.2168 20.71C62.5435 20.53 62.9135 20.44 63.3268 20.44ZM68.0049 21.13V24.52C68.0049 24.8533 68.0683 25.0833 68.1949 25.21C68.3216 25.3367 68.5449 25.4 68.8649 25.4H69.5049V26H68.7549C68.2616 26 67.8949 25.8867 67.6549 25.66C67.4149 25.4267 67.2949 25.0467 67.2949 24.52V21.13H66.5349V20.54H67.2949V19.17H68.0049V20.54H69.5049V21.13H68.0049ZM70.3394 23.26C70.3394 22.7 70.4494 22.21 70.6694 21.79C70.896 21.3633 71.206 21.0367 71.5994 20.81C71.9994 20.5767 72.4494 20.46 72.9494 20.46C73.4694 20.46 73.916 20.58 74.2894 20.82C74.6694 21.06 74.9427 21.3667 75.1094 21.74V20.54H75.8094V26H75.1094V24.79C74.936 25.1633 74.6594 25.4733 74.2794 25.72C73.906 25.96 73.4594 26.08 72.9394 26.08C72.446 26.08 71.9994 25.9633 71.5994 25.73C71.206 25.4967 70.896 25.1667 70.6694 24.74C70.4494 24.3133 70.3394 23.82 70.3394 23.26ZM75.1094 23.27C75.1094 22.83 75.0194 22.4433 74.8394 22.11C74.6594 21.7767 74.4127 21.52 74.0994 21.34C73.7927 21.16 73.4527 21.07 73.0794 21.07C72.6927 21.07 72.346 21.1567 72.0394 21.33C71.7327 21.5033 71.4894 21.7567 71.3094 22.09C71.136 22.4167 71.0494 22.8067 71.0494 23.26C71.0494 23.7067 71.136 24.1 71.3094 24.44C71.4894 24.7733 71.7327 25.03 72.0394 25.21C72.346 25.3833 72.6927 25.47 73.0794 25.47C73.4527 25.47 73.7927 25.38 74.0994 25.2C74.4127 25.02 74.6594 24.7633 74.8394 24.43C75.0194 24.0967 75.1094 23.71 75.1094 23.27ZM79.6974 20.46C80.2108 20.46 80.6574 20.58 81.0374 20.82C81.4174 21.06 81.6908 21.3633 81.8574 21.73V20.54H82.5574V26.14C82.5574 26.64 82.4474 27.0833 82.2274 27.47C82.0141 27.8567 81.7141 28.1533 81.3274 28.36C80.9408 28.5733 80.5008 28.68 80.0074 28.68C79.3074 28.68 78.7241 28.5133 78.2574 28.18C77.7974 27.8467 77.5108 27.3933 77.3974 26.82H78.0874C78.2074 27.2 78.4341 27.5033 78.7674 27.73C79.1074 27.9567 79.5208 28.07 80.0074 28.07C80.3608 28.07 80.6774 27.9933 80.9574 27.84C81.2374 27.6933 81.4574 27.4733 81.6174 27.18C81.7774 26.8867 81.8574 26.54 81.8574 26.14V24.79C81.6841 25.1633 81.4074 25.4733 81.0274 25.72C80.6541 25.96 80.2108 26.08 79.6974 26.08C79.1974 26.08 78.7474 25.9633 78.3474 25.73C77.9541 25.4967 77.6441 25.1667 77.4174 24.74C77.1974 24.3133 77.0874 23.82 77.0874 23.26C77.0874 22.7 77.1974 22.21 77.4174 21.79C77.6441 21.3633 77.9541 21.0367 78.3474 20.81C78.7474 20.5767 79.1974 20.46 79.6974 20.46ZM81.8574 23.27C81.8574 22.83 81.7674 22.4433 81.5874 22.11C81.4074 21.7767 81.1608 21.52 80.8474 21.34C80.5408 21.16 80.2008 21.07 79.8274 21.07C79.4408 21.07 79.0941 21.1567 78.7874 21.33C78.4808 21.5033 78.2374 21.7567 78.0574 22.09C77.8841 22.4167 77.7974 22.8067 77.7974 23.26C77.7974 23.7067 77.8841 24.1 78.0574 24.44C78.2374 24.7733 78.4808 25.03 78.7874 25.21C79.0941 25.3833 79.4408 25.47 79.8274 25.47C80.2008 25.47 80.5408 25.38 80.8474 25.2C81.1608 25.02 81.4074 24.7633 81.5874 24.43C81.7674 24.0967 81.8574 23.71 81.8574 23.27ZM89.0955 22.99C89.0955 23.23 89.0888 23.4133 89.0755 23.54H84.5455C84.5655 23.9533 84.6655 24.3067 84.8455 24.6C85.0255 24.8933 85.2621 25.1167 85.5555 25.27C85.8488 25.4167 86.1688 25.49 86.5155 25.49C86.9688 25.49 87.3488 25.38 87.6555 25.16C87.9688 24.94 88.1755 24.6433 88.2755 24.27H89.0155C88.8821 24.8033 88.5955 25.24 88.1555 25.58C87.7221 25.9133 87.1755 26.08 86.5155 26.08C86.0021 26.08 85.5421 25.9667 85.1355 25.74C84.7288 25.5067 84.4088 25.18 84.1755 24.76C83.9488 24.3333 83.8355 23.8367 83.8355 23.27C83.8355 22.7033 83.9488 22.2067 84.1755 21.78C84.4021 21.3533 84.7188 21.0267 85.1255 20.8C85.5321 20.5733 85.9955 20.46 86.5155 20.46C87.0355 20.46 87.4888 20.5733 87.8755 20.8C88.2688 21.0267 88.5688 21.3333 88.7755 21.72C88.9888 22.1 89.0955 22.5233 89.0955 22.99ZM88.3855 22.97C88.3921 22.5633 88.3088 22.2167 88.1355 21.93C87.9688 21.6433 87.7388 21.4267 87.4455 21.28C87.1521 21.1333 86.8321 21.06 86.4855 21.06C85.9655 21.06 85.5221 21.2267 85.1555 21.56C84.7888 21.8933 84.5855 22.3633 84.5455 22.97H88.3855ZM96.8762 20.44C97.5162 20.44 98.0362 20.6433 98.4362 21.05C98.8428 21.45 99.0462 22.0333 99.0462 22.8V26H98.3562V22.88C98.3562 22.2867 98.2128 21.8333 97.9262 21.52C97.6395 21.2067 97.2495 21.05 96.7562 21.05C96.2428 21.05 95.8328 21.22 95.5262 21.56C95.2195 21.9 95.0662 22.3933 95.0662 23.04V26H94.3762V22.88C94.3762 22.2867 94.2328 21.8333 93.9462 21.52C93.6595 21.2067 93.2662 21.05 92.7662 21.05C92.2528 21.05 91.8428 21.22 91.5362 21.56C91.2295 21.9 91.0762 22.3933 91.0762 23.04V26H90.3762V20.54H91.0762V21.48C91.2495 21.14 91.4962 20.8833 91.8162 20.71C92.1362 20.53 92.4928 20.44 92.8862 20.44C93.3595 20.44 93.7728 20.5533 94.1262 20.78C94.4862 21.0067 94.7462 21.34 94.9062 21.78C95.0528 21.3467 95.3028 21.0167 95.6562 20.79C96.0162 20.5567 96.4228 20.44 96.8762 20.44ZM103.025 23.26C103.025 22.7 103.138 22.21 103.365 21.79C103.592 21.3633 103.902 21.0367 104.295 20.81C104.695 20.5767 105.145 20.46 105.645 20.46C106.125 20.46 106.558 20.5767 106.945 20.81C107.332 21.0433 107.615 21.3467 107.795 21.72V18.6H108.495V26H107.795V24.78C107.628 25.16 107.355 25.4733 106.975 25.72C106.595 25.96 106.148 26.08 105.635 26.08C105.135 26.08 104.685 25.9633 104.285 25.73C103.892 25.4967 103.582 25.1667 103.355 24.74C103.135 24.3133 103.025 23.82 103.025 23.26ZM107.795 23.27C107.795 22.83 107.705 22.4433 107.525 22.11C107.345 21.7767 107.098 21.52 106.785 21.34C106.478 21.16 106.138 21.07 105.765 21.07C105.378 21.07 105.032 21.1567 104.725 21.33C104.418 21.5033 104.175 21.7567 103.995 22.09C103.822 22.4167 103.735 22.8067 103.735 23.26C103.735 23.7067 103.822 24.1 103.995 24.44C104.175 24.7733 104.418 25.03 104.725 25.21C105.032 25.3833 105.378 25.47 105.765 25.47C106.138 25.47 106.478 25.38 106.785 25.2C107.098 25.02 107.345 24.7633 107.525 24.43C107.705 24.0967 107.795 23.71 107.795 23.27ZM115.033 22.99C115.033 23.23 115.026 23.4133 115.013 23.54H110.483C110.503 23.9533 110.603 24.3067 110.783 24.6C110.963 24.8933 111.2 25.1167 111.493 25.27C111.786 25.4167 112.106 25.49 112.453 25.49C112.906 25.49 113.286 25.38 113.593 25.16C113.906 24.94 114.113 24.6433 114.213 24.27H114.953C114.82 24.8033 114.533 25.24 114.093 25.58C113.66 25.9133 113.113 26.08 112.453 26.08C111.94 26.08 111.48 25.9667 111.073 25.74C110.666 25.5067 110.346 25.18 110.113 24.76C109.886 24.3333 109.773 23.8367 109.773 23.27C109.773 22.7033 109.886 22.2067 110.113 21.78C110.34 21.3533 110.656 21.0267 111.063 20.8C111.47 20.5733 111.933 20.46 112.453 20.46C112.973 20.46 113.426 20.5733 113.813 20.8C114.206 21.0267 114.506 21.3333 114.713 21.72C114.926 22.1 115.033 22.5233 115.033 22.99ZM114.323 22.97C114.33 22.5633 114.246 22.2167 114.073 21.93C113.906 21.6433 113.676 21.4267 113.383 21.28C113.09 21.1333 112.77 21.06 112.423 21.06C111.903 21.06 111.46 21.2267 111.093 21.56C110.726 21.8933 110.523 22.3633 110.483 22.97H114.323ZM119.758 21.51C119.911 21.17 120.144 20.9067 120.458 20.72C120.778 20.5333 121.168 20.44 121.628 20.44V21.17H121.438C120.931 21.17 120.524 21.3067 120.218 21.58C119.911 21.8533 119.758 22.31 119.758 22.95V26H119.058V20.54H119.758V21.51ZM127.621 22.99C127.621 23.23 127.614 23.4133 127.601 23.54H123.071C123.091 23.9533 123.191 24.3067 123.371 24.6C123.551 24.8933 123.788 25.1167 124.081 25.27C124.374 25.4167 124.694 25.49 125.041 25.49C125.494 25.49 125.874 25.38 126.181 25.16C126.494 24.94 126.701 24.6433 126.801 24.27H127.541C127.408 24.8033 127.121 25.24 126.681 25.58C126.248 25.9133 125.701 26.08 125.041 26.08C124.528 26.08 124.068 25.9667 123.661 25.74C123.254 25.5067 122.934 25.18 122.701 24.76C122.474 24.3333 122.361 23.8367 122.361 23.27C122.361 22.7033 122.474 22.2067 122.701 21.78C122.928 21.3533 123.244 21.0267 123.651 20.8C124.058 20.5733 124.521 20.46 125.041 20.46C125.561 20.46 126.014 20.5733 126.401 20.8C126.794 21.0267 127.094 21.3333 127.301 21.72C127.514 22.1 127.621 22.5233 127.621 22.99ZM126.911 22.97C126.918 22.5633 126.834 22.2167 126.661 21.93C126.494 21.6433 126.264 21.4267 125.971 21.28C125.678 21.1333 125.358 21.06 125.011 21.06C124.491 21.06 124.048 21.2267 123.681 21.56C123.314 21.8933 123.111 22.3633 123.071 22.97H126.911ZM131.462 20.44C132.115 20.44 132.648 20.6433 133.062 21.05C133.475 21.45 133.682 22.0333 133.682 22.8V26H132.992V22.88C132.992 22.2867 132.842 21.8333 132.542 21.52C132.248 21.2067 131.845 21.05 131.332 21.05C130.805 21.05 130.385 21.2167 130.072 21.55C129.758 21.8833 129.602 22.3733 129.602 23.02V26H128.902V20.54H129.602V21.47C129.775 21.1367 130.025 20.8833 130.352 20.71C130.678 20.53 131.048 20.44 131.462 20.44ZM136.14 21.13V24.52C136.14 24.8533 136.203 25.0833 136.33 25.21C136.456 25.3367 136.68 25.4 137 25.4H137.64V26H136.89C136.396 26 136.03 25.8867 135.79 25.66C135.55 25.4267 135.43 25.0467 135.43 24.52V21.13H134.67V20.54H135.43V19.17H136.14V20.54H137.64V21.13H136.14ZM138.474 23.26C138.474 22.7 138.584 22.21 138.804 21.79C139.031 21.3633 139.341 21.0367 139.734 20.81C140.134 20.5767 140.584 20.46 141.084 20.46C141.604 20.46 142.051 20.58 142.424 20.82C142.804 21.06 143.077 21.3667 143.244 21.74V20.54H143.944V26H143.244V24.79C143.071 25.1633 142.794 25.4733 142.414 25.72C142.041 25.96 141.594 26.08 141.074 26.08C140.581 26.08 140.134 25.9633 139.734 25.73C139.341 25.4967 139.031 25.1667 138.804 24.74C138.584 24.3133 138.474 23.82 138.474 23.26ZM143.244 23.27C143.244 22.83 143.154 22.4433 142.974 22.11C142.794 21.7767 142.547 21.52 142.234 21.34C141.927 21.16 141.587 21.07 141.214 21.07C140.827 21.07 140.481 21.1567 140.174 21.33C139.867 21.5033 139.624 21.7567 139.444 22.09C139.271 22.4167 139.184 22.8067 139.184 23.26C139.184 23.7067 139.271 24.1 139.444 24.44C139.624 24.7733 139.867 25.03 140.174 25.21C140.481 25.3833 140.827 25.47 141.214 25.47C141.587 25.47 141.927 25.38 142.234 25.2C142.547 25.02 142.794 24.7633 142.974 24.43C143.154 24.0967 143.244 23.71 143.244 23.27ZM146.232 21.75C146.412 21.37 146.689 21.06 147.062 20.82C147.442 20.58 147.889 20.46 148.402 20.46C148.902 20.46 149.349 20.5767 149.742 20.81C150.136 21.0367 150.442 21.3633 150.662 21.79C150.889 22.21 151.002 22.7 151.002 23.26C151.002 23.82 150.889 24.3133 150.662 24.74C150.442 25.1667 150.132 25.4967 149.732 25.73C149.339 25.9633 148.896 26.08 148.402 26.08C147.882 26.08 147.432 25.9633 147.052 25.73C146.679 25.49 146.406 25.18 146.232 24.8V26H145.542V18.6H146.232V21.75ZM150.292 23.26C150.292 22.8067 150.202 22.4167 150.022 22.09C149.849 21.7567 149.609 21.5033 149.302 21.33C148.996 21.1567 148.649 21.07 148.262 21.07C147.889 21.07 147.546 21.16 147.232 21.34C146.926 21.52 146.682 21.7767 146.502 22.11C146.322 22.4433 146.232 22.83 146.232 23.27C146.232 23.71 146.322 24.0967 146.502 24.43C146.682 24.7633 146.926 25.02 147.232 25.2C147.546 25.38 147.889 25.47 148.262 25.47C148.649 25.47 148.996 25.3833 149.302 25.21C149.609 25.03 149.849 24.7733 150.022 24.44C150.202 24.1 150.292 23.7067 150.292 23.26ZM152.64 19.51C152.5 19.51 152.38 19.46 152.28 19.36C152.18 19.26 152.13 19.1367 152.13 18.99C152.13 18.8433 152.18 18.7233 152.28 18.63C152.38 18.53 152.5 18.48 152.64 18.48C152.78 18.48 152.9 18.53 153 18.63C153.1 18.7233 153.15 18.8433 153.15 18.99C153.15 19.1367 153.1 19.26 153 19.36C152.9 19.46 152.78 19.51 152.64 19.51ZM152.99 20.54V26H152.29V20.54H152.99ZM155.275 18.6V26H154.575V18.6H155.275ZM157.211 19.51C157.071 19.51 156.951 19.46 156.851 19.36C156.751 19.26 156.701 19.1367 156.701 18.99C156.701 18.8433 156.751 18.7233 156.851 18.63C156.951 18.53 157.071 18.48 157.211 18.48C157.351 18.48 157.471 18.53 157.571 18.63C157.671 18.7233 157.721 18.8433 157.721 18.99C157.721 19.1367 157.671 19.26 157.571 19.36C157.471 19.46 157.351 19.51 157.211 19.51ZM157.561 20.54V26H156.861V20.54H157.561ZM158.826 23.26C158.826 22.7 158.939 22.21 159.166 21.79C159.392 21.3633 159.702 21.0367 160.096 20.81C160.496 20.5767 160.946 20.46 161.446 20.46C161.926 20.46 162.359 20.5767 162.746 20.81C163.132 21.0433 163.416 21.3467 163.596 21.72V18.6H164.296V26H163.596V24.78C163.429 25.16 163.156 25.4733 162.776 25.72C162.396 25.96 161.949 26.08 161.436 26.08C160.936 26.08 160.486 25.9633 160.086 25.73C159.692 25.4967 159.382 25.1667 159.156 24.74C158.936 24.3133 158.826 23.82 158.826 23.26ZM163.596 23.27C163.596 22.83 163.506 22.4433 163.326 22.11C163.146 21.7767 162.899 21.52 162.586 21.34C162.279 21.16 161.939 21.07 161.566 21.07C161.179 21.07 160.832 21.1567 160.526 21.33C160.219 21.5033 159.976 21.7567 159.796 22.09C159.622 22.4167 159.536 22.8067 159.536 23.26C159.536 23.7067 159.622 24.1 159.796 24.44C159.976 24.7733 160.219 25.03 160.526 25.21C160.832 25.3833 161.179 25.47 161.566 25.47C161.939 25.47 162.279 25.38 162.586 25.2C162.899 25.02 163.146 24.7633 163.326 24.43C163.506 24.0967 163.596 23.71 163.596 23.27ZM165.574 23.26C165.574 22.7 165.684 22.21 165.904 21.79C166.13 21.3633 166.44 21.0367 166.834 20.81C167.234 20.5767 167.684 20.46 168.184 20.46C168.704 20.46 169.15 20.58 169.524 20.82C169.904 21.06 170.177 21.3667 170.344 21.74V20.54H171.044V26H170.344V24.79C170.17 25.1633 169.894 25.4733 169.514 25.72C169.14 25.96 168.694 26.08 168.174 26.08C167.68 26.08 167.234 25.9633 166.834 25.73C166.44 25.4967 166.13 25.1667 165.904 24.74C165.684 24.3133 165.574 23.82 165.574 23.26ZM170.344 23.27C170.344 22.83 170.254 22.4433 170.074 22.11C169.894 21.7767 169.647 21.52 169.334 21.34C169.027 21.16 168.687 21.07 168.314 21.07C167.927 21.07 167.58 21.1567 167.274 21.33C166.967 21.5033 166.724 21.7567 166.544 22.09C166.37 22.4167 166.284 22.8067 166.284 23.26C166.284 23.7067 166.37 24.1 166.544 24.44C166.724 24.7733 166.967 25.03 167.274 25.21C167.58 25.3833 167.927 25.47 168.314 25.47C168.687 25.47 169.027 25.38 169.334 25.2C169.647 25.02 169.894 24.7633 170.074 24.43C170.254 24.0967 170.344 23.71 170.344 23.27ZM172.322 23.26C172.322 22.7 172.435 22.21 172.662 21.79C172.888 21.3633 173.198 21.0367 173.592 20.81C173.992 20.5767 174.442 20.46 174.942 20.46C175.422 20.46 175.855 20.5767 176.242 20.81C176.628 21.0433 176.912 21.3467 177.092 21.72V18.6H177.792V26H177.092V24.78C176.925 25.16 176.652 25.4733 176.272 25.72C175.892 25.96 175.445 26.08 174.932 26.08C174.432 26.08 173.982 25.9633 173.582 25.73C173.188 25.4967 172.878 25.1667 172.652 24.74C172.432 24.3133 172.322 23.82 172.322 23.26ZM177.092 23.27C177.092 22.83 177.002 22.4433 176.822 22.11C176.642 21.7767 176.395 21.52 176.082 21.34C175.775 21.16 175.435 21.07 175.062 21.07C174.675 21.07 174.328 21.1567 174.022 21.33C173.715 21.5033 173.472 21.7567 173.292 22.09C173.118 22.4167 173.032 22.8067 173.032 23.26C173.032 23.7067 173.118 24.1 173.292 24.44C173.472 24.7733 173.715 25.03 174.022 25.21C174.328 25.3833 174.675 25.47 175.062 25.47C175.435 25.47 175.775 25.38 176.082 25.2C176.395 25.02 176.642 24.7633 176.822 24.43C177.002 24.0967 177.092 23.71 177.092 23.27ZM184.33 22.99C184.33 23.23 184.323 23.4133 184.31 23.54H179.78C179.8 23.9533 179.9 24.3067 180.08 24.6C180.26 24.8933 180.497 25.1167 180.79 25.27C181.083 25.4167 181.403 25.49 181.75 25.49C182.203 25.49 182.583 25.38 182.89 25.16C183.203 24.94 183.41 24.6433 183.51 24.27H184.25C184.117 24.8033 183.83 25.24 183.39 25.58C182.957 25.9133 182.41 26.08 181.75 26.08C181.237 26.08 180.777 25.9667 180.37 25.74C179.963 25.5067 179.643 25.18 179.41 24.76C179.183 24.3333 179.07 23.8367 179.07 23.27C179.07 22.7033 179.183 22.2067 179.41 21.78C179.637 21.3533 179.953 21.0267 180.36 20.8C180.767 20.5733 181.23 20.46 181.75 20.46C182.27 20.46 182.723 20.5733 183.11 20.8C183.503 21.0267 183.803 21.3333 184.01 21.72C184.223 22.1 184.33 22.5233 184.33 22.99ZM183.62 22.97C183.627 22.5633 183.543 22.2167 183.37 21.93C183.203 21.6433 182.973 21.4267 182.68 21.28C182.387 21.1333 182.067 21.06 181.72 21.06C181.2 21.06 180.757 21.2267 180.39 21.56C180.023 21.8933 179.82 22.3633 179.78 22.97H183.62ZM188.035 23.26C188.035 22.7 188.148 22.21 188.375 21.79C188.601 21.3633 188.911 21.0367 189.305 20.81C189.705 20.5767 190.155 20.46 190.655 20.46C191.135 20.46 191.568 20.5767 191.955 20.81C192.341 21.0433 192.625 21.3467 192.805 21.72V18.6H193.505V26H192.805V24.78C192.638 25.16 192.365 25.4733 191.985 25.72C191.605 25.96 191.158 26.08 190.645 26.08C190.145 26.08 189.695 25.9633 189.295 25.73C188.901 25.4967 188.591 25.1667 188.365 24.74C188.145 24.3133 188.035 23.82 188.035 23.26ZM192.805 23.27C192.805 22.83 192.715 22.4433 192.535 22.11C192.355 21.7767 192.108 21.52 191.795 21.34C191.488 21.16 191.148 21.07 190.775 21.07C190.388 21.07 190.041 21.1567 189.735 21.33C189.428 21.5033 189.185 21.7567 189.005 22.09C188.831 22.4167 188.745 22.8067 188.745 23.26C188.745 23.7067 188.831 24.1 189.005 24.44C189.185 24.7733 189.428 25.03 189.735 25.21C190.041 25.3833 190.388 25.47 190.775 25.47C191.148 25.47 191.488 25.38 191.795 25.2C192.108 25.02 192.355 24.7633 192.535 24.43C192.715 24.0967 192.805 23.71 192.805 23.27ZM197.493 26.08C196.979 26.08 196.516 25.9667 196.103 25.74C195.696 25.5067 195.373 25.18 195.133 24.76C194.899 24.3333 194.783 23.8367 194.783 23.27C194.783 22.7033 194.903 22.21 195.143 21.79C195.383 21.3633 195.709 21.0367 196.123 20.81C196.536 20.5767 196.999 20.46 197.513 20.46C198.026 20.46 198.489 20.5767 198.903 20.81C199.323 21.0367 199.649 21.3633 199.883 21.79C200.123 22.21 200.243 22.7033 200.243 23.27C200.243 23.83 200.123 24.3233 199.883 24.75C199.643 25.1767 199.313 25.5067 198.893 25.74C198.473 25.9667 198.006 26.08 197.493 26.08ZM197.493 25.47C197.853 25.47 198.186 25.39 198.493 25.23C198.799 25.0633 199.046 24.8167 199.233 24.49C199.426 24.1567 199.523 23.75 199.523 23.27C199.523 22.79 199.429 22.3867 199.243 22.06C199.056 21.7267 198.809 21.48 198.503 21.32C198.196 21.1533 197.863 21.07 197.503 21.07C197.143 21.07 196.809 21.1533 196.503 21.32C196.196 21.48 195.949 21.7267 195.763 22.06C195.583 22.3867 195.493 22.79 195.493 23.27C195.493 23.75 195.583 24.1567 195.763 24.49C195.949 24.8167 196.193 25.0633 196.493 25.23C196.799 25.39 197.133 25.47 197.493 25.47ZM204.963 25.43H207.473V26H204.263V19.01H204.963V25.43ZM208.152 22.5C208.152 21.8133 208.302 21.2 208.602 20.66C208.902 20.1133 209.312 19.69 209.832 19.39C210.352 19.0833 210.932 18.93 211.572 18.93C212.352 18.93 213.019 19.1167 213.572 19.49C214.132 19.8567 214.539 20.3767 214.792 21.05H213.972C213.772 20.5767 213.465 20.2067 213.052 19.94C212.645 19.6733 212.152 19.54 211.572 19.54C211.059 19.54 210.595 19.66 210.182 19.9C209.775 20.14 209.455 20.4867 209.222 20.94C208.989 21.3867 208.872 21.9067 208.872 22.5C208.872 23.0933 208.989 23.6133 209.222 24.06C209.455 24.5067 209.775 24.85 210.182 25.09C210.595 25.33 211.059 25.45 211.572 25.45C212.152 25.45 212.645 25.32 213.052 25.06C213.465 24.7933 213.772 24.4267 213.972 23.96H214.792C214.539 24.6267 214.132 25.1433 213.572 25.51C213.012 25.8767 212.345 26.06 211.572 26.06C210.932 26.06 210.352 25.91 209.832 25.61C209.312 25.3033 208.902 24.88 208.602 24.34C208.302 23.8 208.152 23.1867 208.152 22.5ZM216.887 19.01V26H216.187V19.01H216.887ZM226.156 22.99C226.156 23.23 226.149 23.4133 226.136 23.54H221.606C221.626 23.9533 221.726 24.3067 221.906 24.6C222.086 24.8933 222.323 25.1167 222.616 25.27C222.909 25.4167 223.229 25.49 223.576 25.49C224.029 25.49 224.409 25.38 224.716 25.16C225.029 24.94 225.236 24.6433 225.336 24.27H226.076C225.943 24.8033 225.656 25.24 225.216 25.58C224.783 25.9133 224.236 26.08 223.576 26.08C223.063 26.08 222.603 25.9667 222.196 25.74C221.789 25.5067 221.469 25.18 221.236 24.76C221.009 24.3333 220.896 23.8367 220.896 23.27C220.896 22.7033 221.009 22.2067 221.236 21.78C221.463 21.3533 221.779 21.0267 222.186 20.8C222.593 20.5733 223.056 20.46 223.576 20.46C224.096 20.46 224.549 20.5733 224.936 20.8C225.329 21.0267 225.629 21.3333 225.836 21.72C226.049 22.1 226.156 22.5233 226.156 22.99ZM225.446 22.97C225.453 22.5633 225.369 22.2167 225.196 21.93C225.029 21.6433 224.799 21.4267 224.506 21.28C224.213 21.1333 223.893 21.06 223.546 21.06C223.026 21.06 222.583 21.2267 222.216 21.56C221.849 21.8933 221.646 22.3633 221.606 22.97H225.446ZM230.881 25.43H233.391V26H230.181V19.01H230.881V25.43ZM234.07 22.5C234.07 21.8133 234.22 21.2 234.52 20.66C234.82 20.1133 235.23 19.69 235.75 19.39C236.27 19.0833 236.85 18.93 237.49 18.93C238.27 18.93 238.937 19.1167 239.49 19.49C240.05 19.8567 240.457 20.3767 240.71 21.05H239.89C239.69 20.5767 239.383 20.2067 238.97 19.94C238.563 19.6733 238.07 19.54 237.49 19.54C236.977 19.54 236.513 19.66 236.1 19.9C235.693 20.14 235.373 20.4867 235.14 20.94C234.907 21.3867 234.79 21.9067 234.79 22.5C234.79 23.0933 234.907 23.6133 235.14 24.06C235.373 24.5067 235.693 24.85 236.1 25.09C236.513 25.33 236.977 25.45 237.49 25.45C238.07 25.45 238.563 25.32 238.97 25.06C239.383 24.7933 239.69 24.4267 239.89 23.96H240.71C240.457 24.6267 240.05 25.1433 239.49 25.51C238.93 25.8767 238.263 26.06 237.49 26.06C236.85 26.06 236.27 25.91 235.75 25.61C235.23 25.3033 234.82 24.88 234.52 24.34C234.22 23.8 234.07 23.1867 234.07 22.5ZM246.155 24.34H242.975L242.365 26H241.625L244.175 19.1H244.965L247.505 26H246.765L246.155 24.34ZM245.945 23.76L244.565 19.98L243.185 23.76H245.945ZM248.748 26.05C248.601 26.05 248.478 26 248.378 25.9C248.285 25.8 248.238 25.6767 248.238 25.53C248.238 25.3833 248.285 25.2633 248.378 25.17C248.478 25.07 248.601 25.02 248.748 25.02C248.888 25.02 249.005 25.07 249.098 25.17C249.198 25.2633 249.248 25.3833 249.248 25.53C249.248 25.6767 249.198 25.8 249.098 25.9C249.005 26 248.888 26.05 248.748 26.05ZM248.748 21.7C248.601 21.7 248.478 21.65 248.378 21.55C248.285 21.45 248.238 21.3267 248.238 21.18C248.238 21.0333 248.285 20.9133 248.378 20.82C248.478 20.72 248.601 20.67 248.748 20.67C248.888 20.67 249.005 20.72 249.098 20.82C249.198 20.9133 249.248 21.0333 249.248 21.18C249.248 21.3267 249.198 21.45 249.098 21.55C249.005 21.65 248.888 21.7 248.748 21.7ZM253.998 24.09C254.071 24.5233 254.238 24.8567 254.498 25.09C254.758 25.3233 255.115 25.44 255.568 25.44C256.195 25.44 256.658 25.1967 256.958 24.71C257.265 24.2167 257.405 23.4033 257.378 22.27C257.251 22.6367 257.008 22.9267 256.648 23.14C256.295 23.3467 255.888 23.45 255.428 23.45C254.728 23.45 254.165 23.24 253.738 22.82C253.318 22.4 253.108 21.8167 253.108 21.07C253.108 20.6233 253.195 20.22 253.368 19.86C253.541 19.5 253.805 19.2167 254.158 19.01C254.511 18.8033 254.945 18.7 255.458 18.7C256.405 18.7 257.065 19.01 257.438 19.63C257.811 20.2433 257.998 21.1267 257.998 22.28C257.998 23.5267 257.811 24.4633 257.438 25.09C257.071 25.7167 256.438 26.03 255.538 26.03C254.878 26.03 254.365 25.8533 253.998 25.5C253.631 25.14 253.415 24.67 253.348 24.09H253.998ZM255.538 22.85C255.851 22.85 256.138 22.7867 256.398 22.66C256.665 22.5267 256.878 22.3333 257.038 22.08C257.198 21.8267 257.278 21.5233 257.278 21.17C257.278 20.6233 257.121 20.1733 256.808 19.82C256.501 19.4667 256.058 19.29 255.478 19.29C254.965 19.29 254.551 19.45 254.238 19.77C253.931 20.09 253.778 20.5167 253.778 21.05C253.778 21.61 253.931 22.05 254.238 22.37C254.545 22.69 254.978 22.85 255.538 22.85ZM260.708 22.28C260.295 22.1467 259.978 21.9367 259.758 21.65C259.545 21.3633 259.438 21.0167 259.438 20.61C259.438 20.25 259.528 19.93 259.708 19.65C259.895 19.3633 260.165 19.14 260.518 18.98C260.871 18.8133 261.295 18.73 261.788 18.73C262.281 18.73 262.705 18.8133 263.058 18.98C263.411 19.14 263.678 19.3633 263.858 19.65C264.045 19.93 264.138 20.25 264.138 20.61C264.138 21.01 264.028 21.3567 263.808 21.65C263.595 21.9433 263.281 22.1533 262.868 22.28C263.321 22.3933 263.678 22.61 263.938 22.93C264.198 23.25 264.328 23.64 264.328 24.1C264.328 24.5267 264.221 24.9 264.008 25.22C263.801 25.5333 263.505 25.7767 263.118 25.95C262.738 26.1233 262.295 26.21 261.788 26.21C261.281 26.21 260.835 26.1233 260.448 25.95C260.068 25.7767 259.771 25.5333 259.558 25.22C259.351 24.9 259.248 24.5267 259.248 24.1C259.248 23.64 259.378 23.25 259.638 22.93C259.898 22.61 260.255 22.3933 260.708 22.28ZM263.458 20.69C263.458 20.25 263.308 19.91 263.008 19.67C262.708 19.43 262.301 19.31 261.788 19.31C261.275 19.31 260.868 19.43 260.568 19.67C260.268 19.9033 260.118 20.2433 260.118 20.69C260.118 21.1033 260.271 21.4333 260.578 21.68C260.885 21.9267 261.288 22.05 261.788 22.05C262.288 22.05 262.691 21.9267 262.998 21.68C263.305 21.4333 263.458 21.1033 263.458 20.69ZM261.788 22.59C261.241 22.59 260.795 22.7133 260.448 22.96C260.101 23.2067 259.928 23.58 259.928 24.08C259.928 24.56 260.095 24.9367 260.428 25.21C260.761 25.4833 261.215 25.62 261.788 25.62C262.355 25.62 262.805 25.4833 263.138 25.21C263.471 24.93 263.638 24.5533 263.638 24.08C263.638 23.5867 263.465 23.2167 263.118 22.97C262.778 22.7167 262.335 22.59 261.788 22.59ZM265.338 20.33C265.338 19.9033 265.468 19.56 265.728 19.3C265.995 19.0333 266.332 18.9 266.738 18.9C267.152 18.9 267.488 19.0333 267.748 19.3C268.015 19.56 268.148 19.9033 268.148 20.33C268.148 20.7633 268.015 21.1133 267.748 21.38C267.488 21.64 267.152 21.77 266.738 21.77C266.332 21.77 265.995 21.64 265.728 21.38C265.468 21.1133 265.338 20.7633 265.338 20.33ZM270.938 19L266.838 26H266.128L270.238 19H270.938ZM266.738 19.35C266.485 19.35 266.282 19.4367 266.128 19.61C265.982 19.7767 265.908 20.0167 265.908 20.33C265.908 20.6433 265.982 20.8867 266.128 21.06C266.282 21.2333 266.485 21.32 266.738 21.32C266.992 21.32 267.195 21.2333 267.348 21.06C267.502 20.8867 267.578 20.6433 267.578 20.33C267.578 20.0233 267.502 19.7833 267.348 19.61C267.195 19.4367 266.992 19.35 266.738 19.35ZM268.938 24.67C268.938 24.2367 269.068 23.89 269.328 23.63C269.595 23.3633 269.932 23.23 270.338 23.23C270.745 23.23 271.078 23.3633 271.338 23.63C271.605 23.89 271.738 24.2367 271.738 24.67C271.738 25.1033 271.605 25.4533 271.338 25.72C271.078 25.98 270.745 26.11 270.338 26.11C269.932 26.11 269.595 25.98 269.328 25.72C269.068 25.4533 268.938 25.1033 268.938 24.67ZM270.338 23.69C270.085 23.69 269.882 23.7767 269.728 23.95C269.575 24.1233 269.498 24.3633 269.498 24.67C269.498 24.9767 269.575 25.2167 269.728 25.39C269.882 25.5633 270.085 25.65 270.338 25.65C270.592 25.65 270.792 25.5667 270.938 25.4C271.092 25.2267 271.168 24.9833 271.168 24.67C271.168 24.3567 271.092 24.1167 270.938 23.95C270.792 23.7767 270.592 23.69 270.338 23.69ZM275.388 23.26C275.388 22.7 275.502 22.21 275.728 21.79C275.955 21.3633 276.265 21.0367 276.658 20.81C277.058 20.5767 277.508 20.46 278.008 20.46C278.488 20.46 278.922 20.5767 279.308 20.81C279.695 21.0433 279.978 21.3467 280.158 21.72V18.6H280.858V26H280.158V24.78C279.992 25.16 279.718 25.4733 279.338 25.72C278.958 25.96 278.512 26.08 277.998 26.08C277.498 26.08 277.048 25.9633 276.648 25.73C276.255 25.4967 275.945 25.1667 275.718 24.74C275.498 24.3133 275.388 23.82 275.388 23.26ZM280.158 23.27C280.158 22.83 280.068 22.4433 279.888 22.11C279.708 21.7767 279.462 21.52 279.148 21.34C278.842 21.16 278.502 21.07 278.128 21.07C277.742 21.07 277.395 21.1567 277.088 21.33C276.782 21.5033 276.538 21.7567 276.358 22.09C276.185 22.4167 276.098 22.8067 276.098 23.26C276.098 23.7067 276.185 24.1 276.358 24.44C276.538 24.7733 276.782 25.03 277.088 25.21C277.395 25.3833 277.742 25.47 278.128 25.47C278.502 25.47 278.842 25.38 279.148 25.2C279.462 25.02 279.708 24.7633 279.888 24.43C280.068 24.0967 280.158 23.71 280.158 23.27ZM284.846 26.08C284.333 26.08 283.87 25.9667 283.456 25.74C283.05 25.5067 282.726 25.18 282.486 24.76C282.253 24.3333 282.136 23.8367 282.136 23.27C282.136 22.7033 282.256 22.21 282.496 21.79C282.736 21.3633 283.063 21.0367 283.476 20.81C283.89 20.5767 284.353 20.46 284.866 20.46C285.38 20.46 285.843 20.5767 286.256 20.81C286.676 21.0367 287.003 21.3633 287.236 21.79C287.476 22.21 287.596 22.7033 287.596 23.27C287.596 23.83 287.476 24.3233 287.236 24.75C286.996 25.1767 286.666 25.5067 286.246 25.74C285.826 25.9667 285.36 26.08 284.846 26.08ZM284.846 25.47C285.206 25.47 285.54 25.39 285.846 25.23C286.153 25.0633 286.4 24.8167 286.586 24.49C286.78 24.1567 286.876 23.75 286.876 23.27C286.876 22.79 286.783 22.3867 286.596 22.06C286.41 21.7267 286.163 21.48 285.856 21.32C285.55 21.1533 285.216 21.07 284.856 21.07C284.496 21.07 284.163 21.1533 283.856 21.32C283.55 21.48 283.303 21.7267 283.116 22.06C282.936 22.3867 282.846 22.79 282.846 23.27C282.846 23.75 282.936 24.1567 283.116 24.49C283.303 24.8167 283.546 25.0633 283.846 25.23C284.153 25.39 284.486 25.47 284.846 25.47ZM291.296 22.5C291.296 21.8133 291.446 21.2 291.746 20.66C292.046 20.1133 292.456 19.69 292.976 19.39C293.496 19.0833 294.076 18.93 294.716 18.93C295.496 18.93 296.163 19.1167 296.716 19.49C297.276 19.8567 297.683 20.3767 297.936 21.05H297.116C296.916 20.5767 296.61 20.2067 296.196 19.94C295.79 19.6733 295.296 19.54 294.716 19.54C294.203 19.54 293.74 19.66 293.326 19.9C292.92 20.14 292.6 20.4867 292.366 20.94C292.133 21.3867 292.016 21.9067 292.016 22.5C292.016 23.0933 292.133 23.6133 292.366 24.06C292.6 24.5067 292.92 24.85 293.326 25.09C293.74 25.33 294.203 25.45 294.716 25.45C295.296 25.45 295.79 25.32 296.196 25.06C296.61 24.7933 296.916 24.4267 297.116 23.96H297.936C297.683 24.6267 297.276 25.1433 296.716 25.51C296.156 25.8767 295.49 26.06 294.716 26.06C294.076 26.06 293.496 25.91 292.976 25.61C292.456 25.3033 292.046 24.88 291.746 24.34C291.446 23.8 291.296 23.1867 291.296 22.5ZM301.401 19.01C302.175 19.01 302.838 19.15 303.391 19.43C303.945 19.71 304.368 20.1133 304.661 20.64C304.955 21.1667 305.101 21.7933 305.101 22.52C305.101 23.24 304.955 23.8633 304.661 24.39C304.368 24.91 303.945 25.31 303.391 25.59C302.838 25.8633 302.175 26 301.401 26H299.331V19.01H301.401ZM301.401 25.42C302.375 25.42 303.115 25.1667 303.621 24.66C304.135 24.1467 304.391 23.4333 304.391 22.52C304.391 21.6 304.135 20.8833 303.621 20.37C303.115 19.85 302.375 19.59 301.401 19.59H300.031V25.42H301.401ZM307.092 19.01V26H306.392V19.01H307.092ZM308.797 26.05C308.65 26.05 308.527 26 308.427 25.9C308.334 25.8 308.287 25.6767 308.287 25.53C308.287 25.3833 308.334 25.2633 308.427 25.17C308.527 25.07 308.65 25.02 308.797 25.02C308.937 25.02 309.054 25.07 309.147 25.17C309.247 25.2633 309.297 25.3833 309.297 25.53C309.297 25.6767 309.247 25.8 309.147 25.9C309.054 26 308.937 26.05 308.797 26.05Z" fill="black"/>
<path d="M8.49 4.92C8.91667 4.92 9.29333 5.00333 9.62 5.17C9.95333 5.33667 10.21 5.57667 10.39 5.89C10.5767 6.19667 10.67 6.55333 10.67 6.96C10.67 7.68 10.4467 8.21 10 8.55C9.56 8.88333 8.95667 9.05 8.19 9.05L8.16 10.15H7.56L7.52 8.55H7.78C8.46667 8.55 9.00667 8.44333 9.4 8.23C9.8 8.01 10 7.58667 10 6.96C10 6.52 9.86 6.17 9.58 5.91C9.30667 5.65 8.94333 5.52 8.49 5.52C8.03667 5.52 7.67667 5.64333 7.41 5.89C7.14333 6.13667 7.01 6.47333 7.01 6.9H6.34C6.34 6.5 6.43 6.15333 6.61 5.86C6.79667 5.56 7.05 5.33 7.37 5.17C7.69667 5.00333 8.07 4.92 8.49 4.92ZM7.86 12.05C7.71333 12.05 7.59 12 7.49 11.9C7.39667 11.8 7.35 11.6767 7.35 11.53C7.35 11.3833 7.39667 11.2633 7.49 11.17C7.59 11.07 7.71333 11.02 7.86 11.02C8 11.02 8.11667 11.07 8.21 11.17C8.31 11.2633 8.36 11.3833 8.36 11.53C8.36 11.6767 8.31 11.8 8.21 11.9C8.11667 12 8 12.05 7.86 12.05Z" fill="black"/>
<circle cx="8" cy="8" r="7.75" stroke="black" stroke-width="0.5"/>
</svg>
